<?xml version="1.0" standalone="no"?>
<!DOCTYPE svg PUBLIC "-//W3C//DTD SVG 20010904//EN"
 "http://www.w3.org/TR/2001/REC-SVG-20010904/DTD/svg10.dtd">
<svg version="1.0" xmlns="http://www.w3.org/2000/svg"
 width="468.000000pt" height="468.000000pt" viewBox="0 0 468.000000 468.000000"
 preserveAspectRatio="xMidYMid meet">
<metadata>
Created by potrace 1.14, written by Peter Selinger 2001-2017
</metadata>
<g transform="translate(0.000000,468.000000) scale(0.100000,-0.100000)"
fill="#000000" stroke="none">
<path d="M2139 4666 c-42 -15 -106 -77 -125 -121 -9 -22 -20 -31 -39 -33 -74
-6 -250 -49 -401 -97 l-71 -23 -1 30 c-1 42 -50 117 -97 150 -48 34 -105 41
-160 20 -113 -42 -169 -201 -114 -322 19 -41 19 -46 4 -55 -9 -5 -46 -29 -81
-52 -42 -27 -64 -36 -64 -27 0 8 0 16 0 19 -1 18 -47 107 -73 142 -28 38 -37
42 -73 43 -39 0 -42 -2 -48 -31 -15 -74 4 -202 39 -268 12 -24 10 -27 -28 -61
-317 -273 -556 -625 -682 -1005 -78 -236 -106 -407 -110 -675 -5 -312 43 -575
153 -850 141 -352 351 -643 647 -896 260 -223 584 -391 923 -480 194 -50 322
-66 557 -69 318 -5 510 24 789 116 689 226 1237 768 1461 1444 l33 100 36 -1
c33 -1 36 1 36 27 0 16 -8 50 -18 76 -19 52 -19 51 -9 103 25 130 32 213 32
400 0 176 -10 308 -31 400 -3 14 -8 36 -10 50 -13 81 -70 268 -118 388 -45
112 -110 236 -188 361 l-59 94 37 38 c26 27 51 41 83 48 64 14 121 39 128 56
3 9 -1 22 -8 31 -11 14 -30 16 -119 11 -58 -3 -133 -12 -168 -21 l-64 -17
-116 119 c-252 256 -491 416 -818 547 -53 21 -99 47 -114 64 -44 50 -98 65
-139 39 -14 -9 -41 -7 -122 10 -57 12 -124 24 -149 27 -25 3 -56 8 -70 10 -14
2 -65 7 -115 10 -78 5 -92 8 -105 27 -32 47 -64 79 -90 93 -39 20 -119 25
-161 11z"/>
</g>
</svg>
