<?xml version="1.0" encoding="UTF-8"?>
<svg id="fish" xmlns="http://www.w3.org/2000/svg" viewBox="0 0 1200 600">
  <defs>
    <style>
  <![CDATA[
    /* CSS styles for fish animation */
    #fish {
      top: 50%;
      width: 235px;
      height: 104px;
      margin-left: -235px;
      position: absolute;
      animation: swim 20s infinite linear;
      -webkit-animation: swim 20s infinite linear;
    }

    @keyframes swim {
      0% { margin-left: -235px; }
      70% { margin-left: 100%; }
      100% { margin-left: 100%; }
    }

    @-webkit-keyframes swim {
      0% { margin-left: -235px; }
      90% { margin-left: 100%; }
      100% { margin-left: 100%; }
    }

    /* Fish bounces */
    #fish1, #fish2, #fish3, #fish4, #fish5, #fish6 {
      fill: #34D399;
      animation: bounce 2s infinite;
      -webkit-animation: bounce 2s infinite;
    }

    #fish2 {
      fill: #7987d9 !important;
      animation-delay: 0.5s;
      -webkit-animation-delay: 0.5s;
    }

    #fish3 {
      fill: #28a8eb !important;
      animation-delay: 0.2s;
      -webkit-animation-delay: 0.2s;
    }

    #fish4 {
      fill: #F97316 !important;
      animation-delay: 0.4s;
      -webkit-animation-delay: 0.4s;
    }

    #fish5 {
      fill: #D946EF !important;
      animation-delay: 0.1s;
      -webkit-animation-delay: 0.1s;
    }

    #fish6 {
      fill: #FBBF24 !important;
      animation-delay: 0.3s;
      -webkit-animation-delay: 0.3s;
    }

    /* Bounce animation */
    @keyframes bounce {
      0%, 50%, 100% {
        transform: translateY(0);
      }
      25% {
        transform: translateY(-5px);
      }
      75% {
        transform: translateY(-3px);
      }
    }

    @-webkit-keyframes bounce {
      0%, 50%, 100% {
        -webkit-transform: translateY(0);
        transform: translateY(0);
      }
      25% {
        -webkit-transform: translateY(-5px);
        transform: translateY(-5px);
      }
      75% {
        -webkit-transform: translateY(-3px);
        transform: translateY(-3px);
      }
    }
  ]]>
</style>
  </defs>
  <path id="fish2" class="cls-1" d="M172.05,20.91c.05-.44-.22-.9-1.02-1.42-.73-.48-1.48-.93-2.21-1.4-1.6-1.03-3.29-1.97-4.9-3.08-4.67-3.24-10.22-4.4-15.76-5.15-2.27-.29-4.81-.17-6.72-1.57-1.48-1.08-4.05-4.83-6.87-6.46-.49-.29-2.77-1.44-2.77-1.44,0,0,1.31,3.55,1.61,4.26.7,1.64-.38,3.06-.83,4.64-.29,1.04,2.14.81,2.26,1.78.18,1.43-4.15,1.94-6.59,2.42-3.66.72-7.92,2.08-11.57.88-4.3-1.38-7.37-4.13-10.47-7.24,1.44,6.73,5.44,10.6,5.62,11.42.19.91-.46,1.09-1.04,1.68-1.29,1.27-6.92,7.73-6.93,9.78,1.61-.25,3.56-1.66,4.98-2.49,1.58-.91,7.61-5.37,9.29-6.07.39-.16,5.05-1.53,5.09-.93.07.93-.31,1.14-.18,1.53.23.75,1.44,1.47,2.02,1.99,1.51,1.29,3.21,2.43,4.27,4.16,1.49,2.4,1.56,5,1.98,7.68.99-.11,2.01-2.18,2.56-2.99.51-.77,2.39-4.07,3.1-4.28.67-.2,2.76.96,3.5,1.18,2.86.85,5.64,1.35,8.56,1.35,3.51,0,12.73.26,19.56-4.8.76-.57,2.56-2.73,2.56-2.73,0,0-.38-.58-1.05-.79.9-.58,1.87-1.21,1.95-1.93h0Z"/>
  <path id="fish3" class="cls-1" d="M234.99,42.95c.05-.44-.22-.9-1.02-1.42-.73-.48-1.48-.93-2.21-1.4-1.6-1.03-3.29-1.97-4.9-3.08-4.67-3.24-10.22-4.4-15.76-5.15-2.27-.29-4.81-.17-6.72-1.57-1.48-1.08-4.05-4.83-6.87-6.46-.49-.29-2.77-1.44-2.77-1.44,0,0,1.31,3.55,1.61,4.26.7,1.64-.38,3.06-.83,4.64-.29,1.04,2.14.81,2.26,1.78.18,1.43-4.15,1.94-6.59,2.42-3.66.72-7.92,2.08-11.57.88-4.3-1.38-7.37-4.13-10.47-7.24,1.44,6.73,5.44,10.6,5.62,11.42.19.91-.46,1.09-1.04,1.68-1.29,1.27-6.92,7.73-6.93,9.78,1.61-.25,3.56-1.66,4.98-2.49,1.58-.91,7.61-5.37,9.29-6.07.39-.16,5.05-1.53,5.09-.93.07.93-.31,1.14-.18,1.53.23.75,1.44,1.47,2.02,1.99,1.51,1.29,3.21,2.43,4.27,4.16,1.49,2.4,1.56,5,1.98,7.68.99-.11,2.01-2.18,2.56-2.99.51-.77,2.39-4.07,3.1-4.28.67-.2,2.76.96,3.5,1.18,2.86.85,5.64,1.35,8.56,1.35,3.51,0,12.73.26,19.56-4.8.76-.57,2.56-2.73,2.56-2.73,0,0-.38-.58-1.05-.79.9-.58,1.87-1.21,1.95-1.93h0Z"/>
  <path id="fish6" class="cls-1" d="M200.07,80.74c.05-.44-.22-.9-1.02-1.42-.73-.48-1.48-.93-2.21-1.4-1.6-1.03-3.29-1.97-4.9-3.08-4.67-3.24-10.22-4.4-15.76-5.15-2.27-.29-4.81-.17-6.72-1.57-1.48-1.08-4.05-4.83-6.87-6.46-.49-.29-2.77-1.44-2.77-1.44,0,0,1.31,3.55,1.61,4.26.7,1.64-.38,3.06-.83,4.64-.29,1.04,2.14.81,2.26,1.78.18,1.43-4.15,1.94-6.59,2.42-3.66.72-7.92,2.08-11.57.88-4.3-1.38-7.37-4.13-10.47-7.24,1.44,6.73,5.44,10.6,5.62,11.42.19.91-.46,1.09-1.04,1.68-1.29,1.27-6.92,7.73-6.93,9.78,1.61-.25,3.56-1.66,4.98-2.49,1.58-.91,7.61-5.37,9.29-6.07.39-.16,5.05-1.53,5.09-.93.07.93-.31,1.14-.18,1.53.23.75,1.44,1.47,2.02,1.99,1.51,1.29,3.21,2.43,4.27,4.16,1.49,2.4,1.56,5,1.98,7.68.99-.11,2.01-2.18,2.56-2.99.51-.77,2.39-4.07,3.1-4.28.67-.2,2.76.96,3.5,1.18,2.86.85,5.64,1.35,8.56,1.35,3.51,0,12.73.26,19.56-4.8.76-.57,2.56-2.73,2.56-2.73,0,0-.38-.58-1.05-.79.9-.58,1.87-1.21,1.95-1.93h0Z"/>
  <path id="fish4" class="cls-1" d="M77.28,89.02c.05-.44-.22-.9-1.02-1.42-.73-.48-1.48-.93-2.21-1.4-1.6-1.03-3.29-1.97-4.9-3.08-4.67-3.24-10.22-4.4-15.76-5.15-2.27-.29-4.81-.17-6.72-1.57-1.48-1.08-4.05-4.83-6.87-6.46-.49-.29-2.77-1.44-2.77-1.44,0,0,1.31,3.55,1.61,4.26.7,1.64-.38,3.06-.83,4.64-.29,1.04,2.14.81,2.26,1.78.18,1.43-4.15,1.94-6.59,2.42-3.66.72-7.92,2.08-11.57.88-4.3-1.38-7.37-4.13-10.47-7.24,1.44,6.73,5.44,10.6,5.62,11.42.19.91-.46,1.09-1.04,1.68-1.29,1.27-6.92,7.73-6.93,9.78,1.61-.25,3.56-1.66,4.98-2.49,1.58-.91,7.61-5.37,9.29-6.07.39-.16,5.05-1.53,5.09-.93.07.93-.31,1.14-.18,1.53.23.75,1.44,1.47,2.02,1.99,1.51,1.29,3.21,2.43,4.27,4.16,1.49,2.4,1.56,5,1.98,7.68.99-.11,2.01-2.18,2.56-2.99.51-.77,2.39-4.07,3.1-4.28.67-.2,2.76.96,3.5,1.18,2.86.85,5.64,1.35,8.56,1.35,3.51,0,12.73.26,19.56-4.8.76-.57,2.56-2.73,2.56-2.73,0,0-.38-.58-1.05-.79.9-.58,1.87-1.21,1.95-1.93Z"/>
  <path id="fish5" class="cls-1" d="M127.65,60.9c.05-.44-.22-.9-1.02-1.42-.73-.48-1.48-.93-2.21-1.4-1.6-1.03-3.29-1.97-4.9-3.08-4.67-3.24-10.22-4.4-15.76-5.15-2.27-.29-4.81-.17-6.72-1.57-1.48-1.08-4.05-4.83-6.87-6.46-.49-.29-2.77-1.44-2.77-1.44,0,0,1.31,3.55,1.61,4.26.7,1.64-.38,3.06-.83,4.64-.29,1.04,2.14.81,2.26,1.78.18,1.43-4.15,1.94-6.59,2.42-3.66.72-7.92,2.08-11.57.88-4.3-1.38-7.37-4.13-10.47-7.24,1.44,6.73,5.44,10.6,5.62,11.42.19.91-.46,1.09-1.04,1.68-1.29,1.27-6.92,7.73-6.93,9.78,1.61-.25,3.56-1.66,4.98-2.49,1.58-.91,7.61-5.37,9.29-6.07.39-.16,5.05-1.53,5.09-.93.07.93-.31,1.14-.18,1.53.23.75,1.44,1.47,2.02,1.99,1.51,1.29,3.21,2.43,4.27,4.16,1.49,2.4,1.56,5,1.98,7.68.99-.11,2.01-2.18,2.56-2.99.51-.77,2.39-4.07,3.1-4.28.67-.2,2.76.96,3.5,1.18,2.86.85,5.64,1.35,8.56,1.35,3.51,0,12.73.26,19.56-4.8.76-.57,2.56-2.73,2.56-2.73,0,0-.38-.58-1.05-.79.9-.58,1.87-1.21,1.95-1.93Z"/>
  <path id="fish1" class="cls-1" d="M68.2,20.52c.05-.44-.22-.9-1.02-1.42-.73-.48-1.48-.93-2.21-1.4-1.6-1.03-3.29-1.97-4.9-3.08-4.67-3.24-10.22-4.4-15.76-5.15-2.27-.29-4.81-.17-6.72-1.57-1.48-1.08-4.05-4.83-6.87-6.46-.49-.29-2.77-1.44-2.77-1.44,0,0,1.31,3.55,1.61,4.26.7,1.64-.38,3.06-.83,4.64-.29,1.04,2.14.81,2.26,1.78.18,1.43-4.15,1.94-6.59,2.42-3.66.72-7.92,2.08-11.57.88-4.3-1.38-7.37-4.13-10.47-7.24,1.44,6.73,5.44,10.6,5.62,11.42.19.91-.46,1.09-1.04,1.68C5.64,21.13.02,27.59,0,29.64c1.61-.25,3.56-1.66,4.98-2.49,1.58-.91,7.61-5.37,9.29-6.07.39-.16,5.05-1.53,5.09-.93.07.93-.31,1.14-.18,1.53.23.75,1.44,1.47,2.02,1.99,1.51,1.29,3.21,2.43,4.27,4.16,1.49,2.4,1.56,5,1.98,7.68.99-.11,2.01-2.18,2.56-2.99.51-.77,2.39-4.07,3.1-4.28.67-.2,2.76.96,3.5,1.18,2.86.85,5.64,1.35,8.56,1.35,3.51,0,12.73.26,19.56-4.8.76-.57,2.56-2.73,2.56-2.73,0,0-.38-.58-1.05-.79.9-.58,1.87-1.21,1.95-1.93h0Z"/>
</svg>